<?xml version="1.0" encoding="iso-8859-1"?>
<!-- Generator: Adobe Illustrator 19.0.0, SVG Export Plug-In . SVG Version: 6.00 Build 0)  -->
<svg version="1.1" id="Capa_1" xmlns="http://www.w3.org/2000/svg" xmlns:xlink="http://www.w3.org/1999/xlink" x="0px" y="0px" fill="#7ccdca"
	 viewBox="0 0 295 295" style="enable-background:new 0 0 295 295;" xml:space="preserve">
<path d="M52.771,0C35.804,0,22,13.804,22,30.771v233.457C22,281.196,35.804,295,52.771,295H273V0H52.771z M91,15h60.46v94.13
	c0,1.361-0.832,1.979-1.53,2.258c-0.699,0.277-1.728,0.402-2.664-0.585L133.88,96.682c-3.276-3.457-7.887-5.439-12.649-5.439
	c0,0,0,0-0.001,0c-4.762,0-9.373,1.982-12.65,5.439l-13.385,14.12c-0.938,0.99-1.964,0.863-2.664,0.586
	c-0.698-0.278-1.53-0.896-1.53-2.258V15z M258,280H52.771C44.075,280,37,272.925,37,264.229V30.771C37,22.075,44.075,15,52.771,15
	H76v94.13c0,7.178,4.309,13.533,10.976,16.191c6.669,2.66,14.168,1.01,19.105-4.2l13.385-14.12c0.625-0.66,1.374-0.759,1.764-0.759
	c0,0,0,0,0.001,0c0.39,0,1.138,0.099,1.763,0.759l13.386,14.121c3.371,3.556,7.936,5.452,12.615,5.452
	c2.175,0,4.374-0.409,6.49-1.253c6.667-2.658,10.976-9.014,10.976-16.191V15H258V280z"/>
<g>
</g>
<g>
</g>
<g>
</g>
<g>
</g>
<g>
</g>
<g>
</g>
<g>
</g>
<g>
</g>
<g>
</g>
<g>
</g>
<g>
</g>
<g>
</g>
<g>
</g>
<g>
</g>
<g>
</g>
</svg>
