<?xml version="1.0" encoding="iso-8859-1"?>
<!-- Generator: Adobe Illustrator 19.0.0, SVG Export Plug-In . SVG Version: 6.00 Build 0)  -->
<svg version="1.1" id="Layer_1" xmlns="http://www.w3.org/2000/svg" xmlns:xlink="http://www.w3.org/1999/xlink" x="0px" y="0px" fill="#7ccdca"
	 viewBox="0 0 480.3 480.3" style="enable-background:new 0 0 480.3 480.3;" xml:space="preserve">
<g transform="translate(0 -540.36)">
	<g>
		<g>
			<path d="M163.4,668.91c-1.9-1.8-4.4-2.9-7.1-2.9H83.4c-4.2,0-8,2.7-9.4,6.7c-1.4,4-0.1,8.4,3.2,11.1l51.7,41.6
				c1.8,1.4,4,2.2,6.3,2.2h62.7v0c4,0,7.7-2.5,9.2-6.2s0.7-8-2.2-10.9L163.4,668.91z M138.7,707.61l-26.9-21.6h40.4l21.6,21.6H138.7
				z"/>
			<path d="M397,666.01h-73.7c-2.7,0-5.2,1-7.1,2.9l-41.5,41.6c-2.9,2.9-3.7,7.1-2.2,10.9s5.2,6.2,9.2,6.2h62.7v0
				c2.3,0,4.5-0.7,6.3-2.2l52.5-41.6c3.3-2.6,4.6-7.1,3.2-11.1C405,668.71,401.3,666.01,397,666.01z M340.9,707.61h-35.1l21.6-21.6
				h40.8L340.9,707.61z"/>
			<path d="M474,562.31L474,562.31c-3.7-1.5-8-0.7-10.9,2.2c-15.8,15.8-43.6,38.3-55.9,38.7c-8.2,0.2-16-8.3-24.3-17.4
				c-9.9-10.9-21.2-23.3-37.5-24.3c-15.8-1.1-27.8,9.1-38.5,18c-8.4,7.1-16.4,13.8-24.1,13.4c-3.4-0.5-9.4-10.8-12.7-16.4
				c-7.1-12.2-15.2-26-29.7-26c-14.9,0-23.2,14-30.5,26.3c-3.5,5.9-9.3,15.7-12.6,16.2c-7.2,0.4-15.2-6.2-23.6-13.2
				c-10.8-9-23.1-19.3-38.9-18.2c-16.3,1-27.6,13.4-37.5,24.3c-8.3,9.1-16.1,17.6-24.2,17.4c-12.4-0.4-40.2-22.9-56-38.7
				c-2.9-2.9-7.2-3.7-10.9-2.2s-6.2,5.2-6.2,9.2v104.5v21.2v303.2c0,5.5,4.5,10,10,10s10-4.5,10-10v-273.4l13.4,17.7
				c2.3,3,6,4.5,9.8,3.8c8-1.4,21.4-2.4,25.8-0.6c8.6,3.6,15.1,12.9,21.8,22.8c7.8,11.3,16.6,24,30.6,29.9c7.6,3.2,15.3,2.1,22,1.1
				c4.2-0.6,8.1-1.2,11-0.5c11.7,2.7,22.5,10.6,34,18.9c15.5,11.3,31.6,23,52.1,23c20.1,0,36.3-11.7,51.9-23.1
				c11.4-8.3,22.1-16.1,33.5-18.8c2.8-0.7,6.8-0.1,11,0.5c6.7,1,14.3,2.1,22-1.1c14.1-5.8,22.9-18.6,30.7-29.9
				c6.8-9.9,13.2-19.2,21.9-22.8c1.7-0.7,5.8,0.1,9.4,0.8c6.6,1.3,14.7,2.9,22.6-1.1c18.3-9.2,34.2-42.6,35.9-46.4
				c0.6-1.3,0.9-2.8,0.9-4.2v-125.6C480.2,567.51,477.8,563.81,474,562.31z M434.4,730.01c-1.8,0.9-6,0.1-9.8-0.7
				c-6.1-1.2-13.6-2.7-20.9,0.4c-14.1,5.8-22.9,18.6-30.7,29.9c-6.8,9.9-13.2,19.2-21.9,22.8c-2.5,1-6.8,0.4-11.3-0.3
				c-5.6-0.8-11.9-1.8-18.5-0.2c-15.3,3.6-28.2,13-40.7,22.1c-13.6,9.9-26.5,19.3-40.1,19.3c-14,0-26.8-9.3-40.4-19.2
				c-12.5-9.1-25.5-18.6-41.2-22.2c-2.5-0.6-5-0.8-7.5-0.8c-3.8,0-7.5,0.5-10.9,1.1c-4.5,0.7-8.8,1.3-11.4,0.3
				c-8.6-3.6-15.1-12.9-21.8-22.8c-7.8-11.3-16.6-24-30.6-29.9c-8.6-3.6-22.5-2.6-30.8-1.5l-25.8-34.2v-17.9v-81.7
				c15,12.8,36.4,28.3,52.4,28.8c17.4,0.5,29.2-12.4,39.7-23.9c8.1-8.9,15.7-17.3,24-17.8c7.9-0.5,16.1,6.3,24.8,13.6
				c10.6,8.8,22.6,18.9,37.9,17.8c0.1,0,0.1,0,0.2,0c13.5-1.2,21.3-14.3,28.1-25.9c3.7-6.2,9.8-16.5,13.3-16.5
				c3,0,9.3,10.9,12.4,16.1c6.8,11.7,14.6,25.1,28.2,26.3c0.1,0,0.2,0,0.2,0c15.8,1.1,27.8-9.1,38.5-18c8.5-7.1,16.5-13.9,24.3-13.4
				c8.2,0.5,15.9,8.9,24,17.8c10.4,11.4,22.2,24.4,39.7,23.9c15.9-0.6,37.3-16,52.3-28.8v100.5l0.1,0
				C454,707.71,442.6,725.91,434.4,730.01z"/>
		</g>
	</g>
</g>
<g>
</g>
<g>
</g>
<g>
</g>
<g>
</g>
<g>
</g>
<g>
</g>
<g>
</g>
<g>
</g>
<g>
</g>
<g>
</g>
<g>
</g>
<g>
</g>
<g>
</g>
<g>
</g>
<g>
</g>
</svg>
